<mxfile host="app.diagrams.net" agent="Mozilla/5.0 (Macintosh; Intel Mac OS X 10_15_7) AppleWebKit/537.36 (KHTML, like Gecko) Chrome/139.0.0.0 Safari/537.36" version="28.1.1">
  <diagram name="Page-1" id="toyqWjw3-tFAEOU__Un6">
    <mxGraphModel grid="1" page="1" gridSize="10" guides="1" tooltips="1" connect="1" arrows="1" fold="1" pageScale="1" pageWidth="827" pageHeight="1169" math="0" shadow="0">
      <root>
        <mxCell id="0" />
        <mxCell id="1" parent="0" />
        <mxCell id="_b9NuXSDLzWbAmvTPXuV-12" value="Regional Integration Engine&lt;div&gt;(Repository Service)&lt;/div&gt;" style="rounded=0;whiteSpace=wrap;html=1;verticalAlign=top;" vertex="1" parent="1">
          <mxGeometry x="590" y="1110" width="300" height="180" as="geometry" />
        </mxCell>
        <mxCell id="HnpPnAv44DMsRuAQf5Vg-59" value="Regional Integration Engine&lt;br&gt;(Enterprise Service Bus)" style="rounded=0;whiteSpace=wrap;html=1;verticalAlign=top;" vertex="1" parent="1">
          <mxGeometry x="280" y="710" width="760" height="370" as="geometry" />
        </mxCell>
        <mxCell id="7jtiY5M9mVHTs9dgm_Sb-16" style="edgeStyle=orthogonalEdgeStyle;rounded=0;orthogonalLoop=1;jettySize=auto;html=1;entryX=0;entryY=0.5;entryDx=0;entryDy=0;entryPerimeter=0;" edge="1" parent="1" source="SpyZkMs1lM7mogaTS6Ty-38" target="_b9NuXSDLzWbAmvTPXuV-6">
          <mxGeometry relative="1" as="geometry" />
        </mxCell>
        <mxCell id="ASGDk-45rUAA4ve6-Ohr-1" value="HL7 v2,3&lt;br&gt;ORU_R01" style="edgeLabel;html=1;align=center;verticalAlign=middle;resizable=0;points=[];" connectable="0" vertex="1" parent="7jtiY5M9mVHTs9dgm_Sb-16">
          <mxGeometry x="-0.2687" y="1" relative="1" as="geometry">
            <mxPoint x="9" y="26" as="offset" />
          </mxGeometry>
        </mxCell>
        <mxCell id="SpyZkMs1lM7mogaTS6Ty-38" value="" style="rounded=0;whiteSpace=wrap;html=1;strokeColor=none;" vertex="1" parent="1">
          <mxGeometry x="153.5" y="800" width="73" height="50" as="geometry" />
        </mxCell>
        <mxCell id="HnpPnAv44DMsRuAQf5Vg-33" value="Laboratory Information System (LIMS)&amp;nbsp;&lt;div&gt;NW GMSA&amp;nbsp;iGene&lt;/div&gt;" style="rounded=1;whiteSpace=wrap;html=1;fillColor=#dae8fc;strokeColor=#6c8ebf;" vertex="1" parent="1">
          <mxGeometry x="130" y="720" width="120" height="60" as="geometry" />
        </mxCell>
        <mxCell id="7jtiY5M9mVHTs9dgm_Sb-10" value="" style="edgeStyle=orthogonalEdgeStyle;rounded=0;exitX=0;exitY=0.5;endArrow=none;dashed=0;html=1;strokeColor=#808080;strokeWidth=2;" edge="1" parent="1" source="7jtiY5M9mVHTs9dgm_Sb-12" target="7jtiY5M9mVHTs9dgm_Sb-11">
          <mxGeometry relative="1" as="geometry" />
        </mxCell>
        <mxCell id="7jtiY5M9mVHTs9dgm_Sb-11" value="" style="strokeWidth=2;dashed=0;align=center;fontSize=8;shape=ellipse;fillColor=#808080;strokeColor=none;" vertex="1" parent="1">
          <mxGeometry x="176.5" y="810" width="12" height="12" as="geometry" />
        </mxCell>
        <mxCell id="7jtiY5M9mVHTs9dgm_Sb-12" value="D" style="strokeWidth=2;dashed=0;align=center;fontSize=8;shape=rect;fillColor=#C7A0FF;fontStyle=1;whiteSpace=wrap;html=1;" vertex="1" parent="1">
          <mxGeometry x="192.5" y="828" width="12" height="12" as="geometry" />
        </mxCell>
        <mxCell id="7jtiY5M9mVHTs9dgm_Sb-15" value="&lt;font style=&quot;font-size: 12px;&quot;&gt;Dynamic&amp;nbsp; Router&lt;/font&gt;" style="html=1;strokeWidth=2;outlineConnect=0;dashed=0;align=center;fontSize=8;shape=mxgraph.eip.content_based_router;verticalLabelPosition=bottom;verticalAlign=top;fillColor=#c0f5a9;" vertex="1" parent="1">
          <mxGeometry x="880" y="792.5" width="120" height="65" as="geometry" />
        </mxCell>
        <mxCell id="7jtiY5M9mVHTs9dgm_Sb-18" style="edgeStyle=orthogonalEdgeStyle;rounded=0;orthogonalLoop=1;jettySize=auto;html=1;endArrow=none;startFill=0;" edge="1" parent="1" source="7jtiY5M9mVHTs9dgm_Sb-17" target="7jtiY5M9mVHTs9dgm_Sb-15">
          <mxGeometry relative="1" as="geometry" />
        </mxCell>
        <mxCell id="7jtiY5M9mVHTs9dgm_Sb-17" value="&lt;font style=&quot;font-size: 12px;&quot;&gt;NHS England Personnel&amp;nbsp;&lt;/font&gt;&lt;div&gt;&lt;font style=&quot;font-size: 12px;&quot;&gt;Demographic Service (PDS)&lt;/font&gt;&lt;/div&gt;" style="html=1;strokeWidth=2;outlineConnect=0;dashed=0;align=center;fontSize=8;verticalLabelPosition=bottom;verticalAlign=top;shape=mxgraph.eip.message_store;fillColor=#c0f5a9" vertex="1" parent="1">
          <mxGeometry x="885" y="950" width="110" height="60" as="geometry" />
        </mxCell>
        <mxCell id="_b9NuXSDLzWbAmvTPXuV-1" value="" style="rounded=0;whiteSpace=wrap;html=1;strokeColor=none;" vertex="1" parent="1">
          <mxGeometry x="1160" y="799.5" width="73" height="50" as="geometry" />
        </mxCell>
        <mxCell id="_b9NuXSDLzWbAmvTPXuV-2" value="" style="edgeStyle=orthogonalEdgeStyle;rounded=0;exitX=0;exitY=0.5;endArrow=none;dashed=0;html=1;strokeColor=#808080;strokeWidth=2;" edge="1" parent="1" source="_b9NuXSDLzWbAmvTPXuV-4" target="_b9NuXSDLzWbAmvTPXuV-3">
          <mxGeometry relative="1" as="geometry" />
        </mxCell>
        <mxCell id="_b9NuXSDLzWbAmvTPXuV-3" value="" style="strokeWidth=2;dashed=0;align=center;fontSize=8;shape=ellipse;fillColor=#808080;strokeColor=none;" vertex="1" parent="1">
          <mxGeometry x="1174.5" y="810" width="12" height="12" as="geometry" />
        </mxCell>
        <mxCell id="_b9NuXSDLzWbAmvTPXuV-4" value="D" style="strokeWidth=2;dashed=0;align=center;fontSize=8;shape=rect;fillColor=#C7A0FF;fontStyle=1;whiteSpace=wrap;html=1;" vertex="1" parent="1">
          <mxGeometry x="1190.5" y="828" width="12" height="12" as="geometry" />
        </mxCell>
        <mxCell id="_b9NuXSDLzWbAmvTPXuV-6" value="&lt;font style=&quot;font-size: 12px;&quot;&gt;Transform to&amp;nbsp;&lt;/font&gt;&lt;div&gt;&lt;font style=&quot;font-size: 12px;&quot;&gt;HL7 FHIR Message&lt;/font&gt;&lt;br&gt;&lt;/div&gt;&lt;div&gt;&lt;font style=&quot;font-size: 12px;&quot;&gt;(Region Canonical Data Model)&lt;/font&gt;&lt;/div&gt;" style="html=1;strokeWidth=2;outlineConnect=0;dashed=0;align=center;fontSize=8;shape=mxgraph.eip.message_translator;fillColor=#c0f5a9;verticalLabelPosition=bottom;verticalAlign=top;" vertex="1" parent="1">
          <mxGeometry x="321" y="792" width="119" height="65" as="geometry" />
        </mxCell>
        <mxCell id="_b9NuXSDLzWbAmvTPXuV-9" style="edgeStyle=orthogonalEdgeStyle;rounded=0;orthogonalLoop=1;jettySize=auto;html=1;entryX=0;entryY=0.5;entryDx=0;entryDy=0;" edge="1" parent="1" source="7jtiY5M9mVHTs9dgm_Sb-15" target="_b9NuXSDLzWbAmvTPXuV-1">
          <mxGeometry relative="1" as="geometry">
            <mxPoint x="1102.7000000000003" y="824.9999999999998" as="targetPoint" />
          </mxGeometry>
        </mxCell>
        <mxCell id="_b9NuXSDLzWbAmvTPXuV-18" value="HL7 v2.5.1&amp;nbsp;&lt;div&gt;MDM_T02&lt;/div&gt;" style="edgeLabel;html=1;align=center;verticalAlign=middle;resizable=0;points=[];" connectable="0" vertex="1" parent="_b9NuXSDLzWbAmvTPXuV-9">
          <mxGeometry x="-0.1386" y="-3" relative="1" as="geometry">
            <mxPoint x="31" y="22" as="offset" />
          </mxGeometry>
        </mxCell>
        <mxCell id="_b9NuXSDLzWbAmvTPXuV-13" value="IRIS&lt;br&gt;FHIR Repository" style="shape=cylinder3;whiteSpace=wrap;html=1;boundedLbl=1;backgroundOutline=1;size=15;" vertex="1" parent="1">
          <mxGeometry x="780" y="1160" width="60" height="80" as="geometry" />
        </mxCell>
        <mxCell id="_b9NuXSDLzWbAmvTPXuV-14" value="FHIR&amp;nbsp;&lt;div&gt;Repository&amp;nbsp;&lt;div&gt;Adaptor&lt;/div&gt;&lt;/div&gt;" style="strokeWidth=2;outlineConnect=0;dashed=0;align=center;html=1;fontSize=8;shape=mxgraph.eip.channel_adapter;fillColor=#9ddbef;" vertex="1" parent="1">
          <mxGeometry x="650" y="1155" width="45" height="90" as="geometry" />
        </mxCell>
        <mxCell id="_b9NuXSDLzWbAmvTPXuV-15" style="edgeStyle=orthogonalEdgeStyle;rounded=0;orthogonalLoop=1;jettySize=auto;html=1;" edge="1" parent="1" source="_b9NuXSDLzWbAmvTPXuV-6" target="ASGDk-45rUAA4ve6-Ohr-3">
          <mxGeometry relative="1" as="geometry" />
        </mxCell>
        <mxCell id="_b9NuXSDLzWbAmvTPXuV-16" style="edgeStyle=orthogonalEdgeStyle;rounded=0;orthogonalLoop=1;jettySize=auto;html=1;entryX=0;entryY=0.5;entryDx=0;entryDy=0;entryPerimeter=0;" edge="1" parent="1" source="_b9NuXSDLzWbAmvTPXuV-14" target="_b9NuXSDLzWbAmvTPXuV-13">
          <mxGeometry relative="1" as="geometry" />
        </mxCell>
        <mxCell id="_b9NuXSDLzWbAmvTPXuV-17" value="HL7 FHIR&amp;nbsp;&lt;div&gt;RESTful&lt;/div&gt;" style="edgeLabel;html=1;align=center;verticalAlign=middle;resizable=0;points=[];" connectable="0" vertex="1" parent="_b9NuXSDLzWbAmvTPXuV-16">
          <mxGeometry x="-0.2917" y="-3" relative="1" as="geometry">
            <mxPoint x="15" y="17" as="offset" />
          </mxGeometry>
        </mxCell>
        <mxCell id="ASGDk-45rUAA4ve6-Ohr-8" style="edgeStyle=orthogonalEdgeStyle;rounded=0;orthogonalLoop=1;jettySize=auto;html=1;" edge="1" parent="1" source="ASGDk-45rUAA4ve6-Ohr-3" target="ASGDk-45rUAA4ve6-Ohr-6">
          <mxGeometry relative="1" as="geometry" />
        </mxCell>
        <mxCell id="ASGDk-45rUAA4ve6-Ohr-3" value="&lt;font style=&quot;font-size: 12px;&quot;&gt;Update Genomic Data&amp;nbsp;&lt;/font&gt;&lt;div&gt;&lt;font style=&quot;font-size: 12px;&quot;&gt;Repository and enrich content&lt;/font&gt;&lt;/div&gt;" style="html=1;strokeWidth=2;outlineConnect=0;dashed=0;align=center;fontSize=8;fillColor=#c0f5a9;verticalLabelPosition=bottom;verticalAlign=top;shape=mxgraph.eip.content_enricher;" vertex="1" parent="1">
          <mxGeometry x="500" y="792.5" width="120" height="65" as="geometry" />
        </mxCell>
        <mxCell id="ASGDk-45rUAA4ve6-Ohr-4" style="edgeStyle=orthogonalEdgeStyle;rounded=0;orthogonalLoop=1;jettySize=auto;html=1;entryX=0;entryY=0.5;entryDx=0;entryDy=0;entryPerimeter=0;startArrow=classic;startFill=1;" edge="1" parent="1" source="ASGDk-45rUAA4ve6-Ohr-3" target="_b9NuXSDLzWbAmvTPXuV-14">
          <mxGeometry relative="1" as="geometry">
            <Array as="points">
              <mxPoint x="560" y="1200" />
            </Array>
          </mxGeometry>
        </mxCell>
        <mxCell id="ASGDk-45rUAA4ve6-Ohr-5" value="HL7 FHIR Message &lt;br&gt;R01" style="edgeLabel;html=1;align=center;verticalAlign=middle;resizable=0;points=[];" connectable="0" vertex="1" parent="ASGDk-45rUAA4ve6-Ohr-4">
          <mxGeometry x="-0.25" y="-1" relative="1" as="geometry">
            <mxPoint x="-69" as="offset" />
          </mxGeometry>
        </mxCell>
        <mxCell id="ASGDk-45rUAA4ve6-Ohr-9" style="edgeStyle=orthogonalEdgeStyle;rounded=0;orthogonalLoop=1;jettySize=auto;html=1;" edge="1" parent="1" source="ASGDk-45rUAA4ve6-Ohr-6" target="7jtiY5M9mVHTs9dgm_Sb-15">
          <mxGeometry relative="1" as="geometry" />
        </mxCell>
        <mxCell id="ASGDk-45rUAA4ve6-Ohr-6" value="&lt;font style=&quot;font-size: 12px;&quot;&gt;Transform to&amp;nbsp;&lt;/font&gt;&lt;div&gt;&lt;font style=&quot;font-size: 12px;&quot;&gt;HL7 v2 MDM_T02 Message&lt;/font&gt;&lt;br&gt;&lt;/div&gt;&lt;div&gt;&lt;font style=&quot;font-size: 12px;&quot;&gt;(Region Canonical Data Model)&lt;/font&gt;&lt;/div&gt;" style="html=1;strokeWidth=2;outlineConnect=0;dashed=0;align=center;fontSize=8;shape=mxgraph.eip.message_translator;fillColor=#c0f5a9;verticalLabelPosition=bottom;verticalAlign=top;" vertex="1" parent="1">
          <mxGeometry x="690" y="792" width="125" height="65" as="geometry" />
        </mxCell>
        <mxCell id="yU3ElABQZjIhGrlI_ipJ-1" value="HL7 over http&lt;br&gt;OAuth2" style="shape=image;html=1;verticalAlign=top;verticalLabelPosition=bottom;labelBackgroundColor=#ffffff;imageAspect=0;aspect=fixed;image=https://cdn4.iconfinder.com/data/icons/ios-web-user-interface-multi-circle-flat-vol-3/512/Authorisation_lock_padlock_password_privacy_safe_security-128.png" vertex="1" parent="1">
          <mxGeometry x="1080" y="875" width="40" height="40" as="geometry" />
        </mxCell>
        <mxCell id="ck6UTDwcm1I5cA8ir3R7-1" value="Health Information Exchange (HIE)" style="rounded=1;whiteSpace=wrap;html=1;fillColor=#dae8fc;strokeColor=#6c8ebf;" vertex="1" parent="1">
          <mxGeometry x="1136.5" y="720" width="120" height="60" as="geometry" />
        </mxCell>
      </root>
    </mxGraphModel>
  </diagram>
</mxfile>
